<svg id="Layer_1" data-name="Layer 1" xmlns="http://www.w3.org/2000/svg" viewBox="0 0 518 519"><defs><style>.cls-1{fill:#e75130;}.cls-2{fill:#231f20;}</style></defs><title>LOGO</title><path class="cls-1" d="M259,519.21C115.93,519.21-.46,402.82-.46,259.75S115.93.29,259,.29,518.46,116.68,518.46,259.75,402.06,519.21,259,519.21Z"/><path class="cls-2" d="M198.9,161c-7.85,0-16.36,6.95-24,23.09l-28.69,61-38-67.14C101.16,165.45,98.58,161,86.14,161v-2.69h52.12V161h-4.6c-5.71,0-9.41,2.13-9.41,8.07,0,2.69,2,6.05,3.47,8.52l26,45.17,17.71-37.21c2-4.37,5.26-11.1,5.26-15.58,0-5.72-1.68-9-9.19-9h-5.38v-2.69h42.7V161Z"/><path class="cls-2" d="M252.39,242.34v-2.69h4.48c5.16,0,10.87-2.35,10.87-9.19a15.08,15.08,0,0,0-2-6.84l-9-16.7h-29.7L223.47,216c-.9,2.35-1.9,4.82-1.9,7.29,0,8.52,6.05,16.36,16,16.36h6.28v2.69h-53.8v-2.69h4.48c14.35,0,22.3-13.67,26.79-25.11l23.88-61.42h2.24L283,220.82c6.95,13.34,9,18.83,19.73,18.83h5.15v2.69Zm-12.78-67.92-11.66,29.81h27.46Z"/><path class="cls-2" d="M380.64,242.34v-2.69c6.16,0,8.29-1.23,8.29-4.15,0-2-1.57-4.26-2.91-5.83l-20-24.21-19.28,20a10.81,10.81,0,0,0-3.25,7.4c0,3.92,3.59,6.84,11.1,6.84h5.72v2.69H313.83v-2.69h2.8c8.85,0,15.46-3.36,26.9-15.13L364,203.34l-25-31c-7.29-9.08-11.21-11.32-20.4-11.32h-5.49v-2.69H366.4V161H362c-4.26,0-6.28.34-6.28,3.25,0,1.91,1.35,3.36,2.13,4.71l18.27,22.19,15-15.47c2-2.13,4.48-5.27,4.48-7.85,0-4.37-2.8-6.84-8-6.84h-5.49v-2.69h47.52V161h-6.61c-9.3,0-17.6,4.15-28.36,15l-17,17.26L408,230c5.72,6.84,9.19,9.64,18.61,9.64h3.14v2.69Z"/><path class="cls-2" d="M162.92,359.26c-5.38,4-12.85,7.34-20.8,7.34a85.3,85.3,0,0,1-21.77-3.06c-6-1.47-10.77-3.18-14.92-3.18s-6.24,1.47-8.07,2.08-3.67,2.81-4.16,2.81c-1,0-1-1.47-1-2.45,0-13.95,13.09-24.83,18.72-27.65,12.23-6.12,21.53-5.63,31.81-11.13,6.61-3.42,8.69-10.15,8.69-15.41,0-11.13-10.65-18.35-21.16-18.35-10.77,0-17.74,2.94-21.65,5.87-2.45,1.84-3.55,3.91-3.55,5.51,0,1.34,1.1,2.2,2.45,2.81,2.32,1.22,5.63,2.57,5.63,7.46,0,6-4.4,10-10.4,10-6.24,0-10.15-5.75-10.15-12,0-11.13,16.39-22.63,37.68-22.63,15.78,0,39.51,4,39.51,21.29,0,19.57-28.87,22.14-42.45,24.22-22.39,3.55-28.87,17.12-31.07,23,5.75-5.14,11.38-9.18,24.34-9.18,6.85,0,11.38,1.84,18.1,3.3a77.83,77.83,0,0,0,17.37,1.71c4.28,0,7.58-.86,9.91-2.32,2.69-1.59,3.67-3.3,4.53-3.3s1.22.25,1.22,1.22C171.72,350.33,168.3,355.23,162.92,359.26Z"/><path class="cls-2" d="M229.44,366.6C209.87,366.6,188,350.95,188,327c0-23.49,21.9-39.64,41.47-39.64s41.47,16.15,41.47,39.64C270.91,350.95,249,366.6,229.44,366.6Zm0-76.58c-14.8,0-23.12,19.57-23.12,36.94s10.15,36.94,23.12,36.94,23.12-19.57,23.12-36.94S244.24,290,229.44,290Z"/><path class="cls-2" d="M287.28,364.65v-3.06h4.53c7.58,0,9.78-2.45,9.78-10.52V297.24L294.38,303l-1.47-2.2,14.44-11.5h12.85v61c0,8.44,2.08,11.25,8.56,11.25h6.36v3.06Z"/><path class="cls-2" d="M390.88,366.6c-23.86,0-41-9.3-41-22.51,0-15.78,18.6-19.82,25.69-21.29-7.58-1.22-19.08-4.53-19.08-16.15,0-13.45,17.86-19.33,34.37-19.33,17.12,0,34.37,5.87,34.37,19.33,0,11.62-11.5,14.92-19.08,16.15,7.1,1.47,25.69,5.5,25.69,21.29C431.86,357.18,414.25,366.6,390.88,366.6Zm0-42.2c-13.21,0-21.9,6.85-21.9,18.23,0,11.13,9.54,21,21.9,21,11.74,0,21.9-9.91,21.9-21C412.78,331.25,403.6,324.4,390.88,324.4Zm0-34.13c-10.52,0-16.76,6.12-16.76,15.54,0,8.81,6.73,15.66,16.76,15.66,9.54,0,16.76-7.1,16.76-15.66C407.64,296.26,401,290.27,390.88,290.27Z"/><path class="cls-2" d="M152,89.37c-1.87,0-3.9,1.65-5.71,5.5l-6.83,14.52-9-16c-1.68-3-2.29-4-5.26-4v-.64h12.41v.64h-1.09c-1.36,0-2.24.51-2.24,1.92a4.75,4.75,0,0,0,.83,2l6.19,10.76,4.22-8.86a11.12,11.12,0,0,0,1.26-3.71c0-1.36-.4-2.13-2.19-2.13H143.3v-.64h10.17v.64Z"/><path class="cls-2" d="M167.12,109.17a10.44,10.44,0,1,1,10.62-10.43A10.44,10.44,0,0,1,167.12,109.17Zm0-20.28c-3.47,0-6.35,4.16-6.35,9.85s2.88,9.85,6.35,9.85,6.35-4.16,6.35-9.85S170.59,88.88,167.12,88.88Z"/><path class="cls-2" d="M197.37,108.74v-.64c1.47,0,2-.29,2-1a2.48,2.48,0,0,0-.69-1.39L193.9,100l-4.59,4.75a2.59,2.59,0,0,0-.77,1.76c0,.93.85,1.63,2.64,1.63h1.36v.64H181.47v-.64h.67c2.11,0,3.68-.8,6.4-3.6l4.88-5-6-7.39c-1.74-2.16-2.67-2.69-4.86-2.69h-1.31v-.64H194v.64h-1c-1,0-1.49.08-1.49.77a2.28,2.28,0,0,0,.51,1.12l4.35,5.28,3.58-3.68A3.37,3.37,0,0,0,200.95,91c0-1-.67-1.63-1.89-1.63h-1.31v-.64h11.31v.64h-1.58c-2.22,0-4.19,1-6.75,3.57l-4.06,4.11,7.2,8.75c1.36,1.63,2.19,2.29,4.43,2.29h.75v.64Z"/><path class="cls-2" d="M232.28,99.19H226.8v5.12c0,3.33,1.18,3.63,3.36,3.79v.64H219.44v-.64c2.16-.16,3.36-.45,3.36-3.79V93.15c0-3.33-1.2-3.63-3.36-3.79v-.64h13.71c4.94,0,7.24,2.78,7.24,5.18C240.39,96.52,237.21,99.19,232.28,99.19Zm-.38-9.82h-5.1v9.18h4.67c2.91,0,4.65-1.28,4.65-4.75C236.12,91.77,235.29,89.37,231.9,89.37Z"/><path class="cls-2" d="M261.33,98.57a11.85,11.85,0,0,1-3.87.4h-6v5.34c0,3.33,1.17,3.63,3.36,3.79v.64H244.06v-.64c2.16-.16,3.37-.45,3.37-3.79V93.15c0-3.33-1.2-3.63-3.37-3.79v-.64h14.25c4.88,0,6.7,2.59,6.7,4.7A5.2,5.2,0,0,1,261.33,98.57Zm-4.81-9.21h-5.1v9h4.67c2.91,0,4.64-1.28,4.64-4.75C260.74,91.69,259.91,89.37,256.52,89.37ZM263.94,109a5.51,5.51,0,0,1-3.73-1.76c-1.42-1.25-2.53-4.64-3.52-6.32-.69-1.18-1-1.2-1-1.49s.51-.3.77-.3c2.72,0,4,1.65,5.71,4.14,1.41,2.11,2.64,4.32,4.08,4.32h.51c.08,0,.21,0,.21.1C267,108.45,265.22,109,263.94,109Z"/><path class="cls-2" d="M281,109.17a10.44,10.44,0,1,1,10.62-10.43A10.44,10.44,0,0,1,281,109.17Zm0-20.28c-3.47,0-6.35,4.16-6.35,9.85s2.88,9.85,6.35,9.85,6.35-4.16,6.35-9.85S284.43,88.88,281,88.88Z"/><path class="cls-2" d="M313.69,107.3c-2.05,1.36-5,1.44-6.49,1.44h-12v-.64c2.48,0,3.9-.45,3.9-3.79V93.15c0-3.33-1.41-3.79-3.9-3.79v-.64H307a13.76,13.76,0,0,1,5.9.94c3.55,1.63,5,5.47,5,9.07A10,10,0,0,1,313.69,107.3Zm-6.94-17.93h-3.6V108.1h4c4,0,6.51-4.67,6.51-9.37C313.61,94.76,311.93,89.37,306.75,89.37Z"/><path class="cls-2" d="M345.28,89.37c-2.53,0-3.84.85-3.84,4.67v8.27c0,1.82.91,1.68.91,2.19,0,.3-.45.43-1.25,1.23-1.31,1.31-2.86,3.44-6.46,3.44-2.88,0-5.26-1.68-7.36-3a21.07,21.07,0,0,1-2.8-1.71,5.58,5.58,0,0,0,.37-1.15c0-.32.05-.75.05-1V93.15c0-3.33-1.2-3.63-3.36-3.79v-.64h10.72v.64c-2.19.16-3.36.45-3.36,3.79v9.5c0,3.42,1.92,5.92,5.76,5.92s6.14-2.35,6.14-6.25V94c0-3.28-1-4.67-3.73-4.67h-1v-.64h10v.64Z"/><path class="cls-2" d="M361.39,109.17c-7.39,0-11.61-5-11.61-10.62,0-6.19,4.54-10.25,11-10.25a10,10,0,0,1,3.12.48,7.8,7.8,0,0,0,2,.48,4.91,4.91,0,0,0,2.21-.64h.59v5.23h-.59c-.43-1.15-3.2-5-7.07-5-4.72,0-7,4.81-7,10.06,0,5.5,2.22,9.63,7.34,9.63,2.64,0,6.38-1.44,6.38-7.15,0-1,.3-1.94.64-1.94.67,0,1,1.23,1,3.09C369.42,106.18,366,109.17,361.39,109.17Z"/><path class="cls-2" d="M392.2,93.58c-.43-1.55-1.23-4.22-5.31-4.22h-1.57v14.94c0,3.33,1.25,3.63,3.63,3.79v.64H377.68v-.64c2.33-.16,3.63-.45,3.63-3.79V89.37h-1.58c-4.08,0-4.88,2.67-5.31,4.22h-.59V88.73h19v4.86Z"/><path class="cls-2" d="M166.22,430.79H153.69v-.62c2.8,0,4-.18,4-3.65V415.79c0-3.47-1.21-3.49-4-3.65v-.62h13c4.47,0,8.07,1.21,8.07,3.88s-3.44,3.65-5.7,4.08c2.36.46,6.35,1.51,6.35,5.6C175.44,430.12,170.33,430.79,166.22,430.79Zm.28-18.64h-5v7h4.78c2.49,0,4.62-1.11,4.62-3.75C170.94,413.66,169.56,412.15,166.5,412.15Zm-.18,7.62h-4.78v10.4h4.73a4.72,4.72,0,0,0,5.06-4.78C171.33,422.39,169.59,419.77,166.32,419.77Z"/><path class="cls-2" d="M193.1,430.79v-.62h1c1.18,0,2.49-.54,2.49-2.11a3.44,3.44,0,0,0-.46-1.57l-2.05-3.83H187.3l-.82,2.08a4.9,4.9,0,0,0-.44,1.67,3.62,3.62,0,0,0,3.67,3.75h1.44v.62H178.82v-.62h1c3.29,0,5.11-3.13,6.14-5.75l5.47-14.07H192l8.14,15.51c1.59,3.06,2.05,4.31,4.52,4.31h1.18v.62Zm-2.93-15.56-2.67,6.83h6.29Z"/><path class="cls-2" d="M208.58,430.79v-.62c2.23-.15,3.49-.44,3.49-3.65V415.79c0-3.21-1.26-3.49-3.49-3.65v-.62h10.58v.62c-2.11.15-3.24.44-3.24,3.65v14.38h3.78c4.62,0,5.73-3.06,6.52-5.08h.56v5.7Z"/><path class="cls-2" d="M247.94,416.2c-.41-1.49-1.18-4.06-5.11-4.06h-1.51v14.38c0,3.21,1.21,3.49,3.49,3.65v.62H234v-.62c2.23-.15,3.49-.44,3.49-3.65V412.15h-1.51c-3.93,0-4.7,2.57-5.11,4.06h-.56v-4.67h18.23v4.67Z"/><path class="cls-2" d="M252.09,430.79v-.62c2.18-.15,3.34-.44,3.34-3.65V415.79c0-3.21-1.15-3.49-3.34-3.65v-.62h10.53v.62c-2.21.15-3.34.44-3.34,3.65v10.74c0,3.21,1.13,3.49,3.34,3.65v.62Z"/><path class="cls-2" d="M282,430.79v-.62c2-.15,3.09-.44,3.09-3.65V412.81l-7.55,14.33L270.8,415.2V425c0,4.93,2.13,5.14,4.49,5.14v.62h-9.66v-.62c2.6,0,4.55-.49,4.55-5.14V414.2c-.74-1.29-1.39-2.05-3.18-2.05h-1.39v-.62h7.45l6.24,10.92,5.93-10.92h7v.62c-2.08.15-3.24.44-3.24,3.67v10.71c0,3.21,1.15,3.49,3.24,3.65v.62Z"/><path class="cls-2" d="M305.9,431.2a10,10,0,1,1,10.22-10A10,10,0,0,1,305.9,431.2Zm0-19.52c-3.34,0-6.11,4-6.11,9.48s2.78,9.48,6.11,9.48,6.12-4,6.12-9.48S309.24,411.68,305.9,411.68Z"/><path class="cls-2" d="M336.25,421a11.25,11.25,0,0,1-3.72.39h-5.81v5.14c0,3.21,1.13,3.49,3.24,3.65v.62H319.63v-.62c2.08-.15,3.24-.44,3.24-3.65V415.79c0-3.21-1.16-3.49-3.24-3.65v-.62h13.72c4.7,0,6.44,2.49,6.44,4.52A5,5,0,0,1,336.25,421Zm-4.62-8.86h-4.9v8.63h4.49c2.8,0,4.47-1.23,4.47-4.57C335.68,414.38,334.89,412.15,331.62,412.15Zm7.14,18.9a5.3,5.3,0,0,1-3.59-1.7c-1.36-1.21-2.44-4.47-3.39-6.09-.66-1.13-1-1.16-1-1.44s.49-.28.74-.28c2.62,0,3.88,1.59,5.5,4,1.36,2,2.54,4.16,3.93,4.16h.49c.08,0,.21,0,.21.1C341.67,430.51,340,431,338.76,431Z"/><path class="cls-2" d="M344.22,430.79v-.62c2.39,0,4.26-.33,4.26-3.13V415c0-2.57-1.88-2.88-4.26-2.88v-.62H364v5.16h-.56c-1.23-2.47-3-4.55-7.4-4.55h-3.67V420h2.82a4.21,4.21,0,0,0,4.29-2.7H360v6.24h-.57c-.43-1.52-1.39-2.93-4.29-2.93h-2.82v9.6H356c3.78,0,6.34-2.88,7.73-5.7h.56v6.32Z"/></svg>