<svg id="Layer_1" data-name="Layer 1" xmlns="http://www.w3.org/2000/svg" viewBox="0 0 16 162"><defs><style>.cls-1{fill:#e75130;}</style></defs><title>VMLOGO</title><path class="cls-1" d="M1.56,157.58l9.22-3.15-6.14-2c-1-.35-2.1-.67-3-1v-4.23L12,151.41c1.69.67,2.67,1.08,3.82,1.46l.19,3.18-10.17,4.2c-1.27.51-2.86,1.14-4.1,1.72Z"/><path class="cls-1" d="M1.34,137.87c0,4.42,3.31,7.38,7.76,7.38a6.82,6.82,0,0,0,7-7c0-4.39-3.31-7.38-7.76-7.38A6.8,6.8,0,0,0,1.34,137.87Zm11.64.22c0,1.91-1.65,3.28-4.32,3.28-2.29,0-4.2-1.3-4.2-3.34s1.65-3.28,4.32-3.28C11.1,134.75,13,136.06,13,138.09Z"/><path class="cls-1" d="M15.74,128.65l-7.22-4.86-2.8,1.91-4,2.73L1.53,124,6,121.11l-1.69-1c-.83-.51-1.94-1.21-2.73-1.72v-4.36l7,4.64L11.1,117c1.21-.79,3.28-2.16,4.58-3.05l.16,4.45-4.8,3,1.49.92c.73.45,2.29,1.4,3.12,1.94v4.45Z"/><path class="cls-1" d="M10.91,103.4l-4.42-.6c-1.27-.19-3.82-.51-4.86-.57l-.13-3.05c.79-.35,1.94-.86,2.83-1.27l5.79-2.61L4.23,92.75l-2.7-1.18v-3c1.18-.13,3.66-.45,5-.64l4.42-.64c1.3-.19,3.78-.57,4.83-.79l.16,3.94c-.57,0-2.26.22-3.05.35l-4.45.57c2.45,1,6.8,2.73,7.5,3l.1,2.1-7.41,3,4.29.48c.79.1,2.32.25,2.89.25v3.94C14.72,103.94,12.21,103.59,10.91,103.4Z"/><path class="cls-1" d="M15.83,72.81c-.1,1.34-.1,3-.1,4.52,0,1.75,0,3.66.1,5.15-1-.1-3.59-.13-4.9-.13H6.49c-1.27,0-4,0-5,.13.06-1.46.1-3.05.1-4.86,0-1.65,0-3.18-.1-4.55a31.69,31.69,0,0,0,3.18.16c0,1,0,2,0,3.28,0,.6,0,1.27,0,1.84.29,0,.7,0,.89,0H7.15l0-4.36c.83,0,1.75.06,2.8.06v4.29h1.81c.22,0,.64,0,.92,0,0-.57,0-1.24,0-1.84,0-1.43,0-2.64-.06-3.82C13.64,72.78,14.59,72.81,15.83,72.81Z"/><path class="cls-1" d="M1.56,63.81c0,2.23.13,4,.13,4.74,1-.1,3.53-.13,4.8-.13h4.42c1.3,0,3.88,0,4.83.13V63.27c0-4.71-2.83-7.69-7.35-7.73C4.1,55.55,1.56,58.5,1.56,63.81Zm11.13-.51a8.8,8.8,0,0,1-.06,1,7.47,7.47,0,0,1-.83,0H5.56a8.63,8.63,0,0,1-.89,0,8.55,8.55,0,0,1-.06-1,3.58,3.58,0,0,1,3.94-3.88C10.94,59.49,12.69,60.63,12.69,63.31Z"/><path class="cls-1" d="M15.74,51.54c-1-.1-3.53-.13-4.83-.13H6.49c-1.27,0-3.88,0-4.83.13,0-.79,0-3.59-.1-4.26.57.06,2.19.1,3,.1h8.33c.76,0,2.32,0,2.89-.1v4.26Z"/><path class="cls-1" d="M11.67,30.27,1.49,34.66l.19,3.21c1.11.38,2.16.86,3.82,1.56l10.27,4.36V39.62c-.25-.13-1.84-.7-2.51-1v-4.9l2.67-1.08-.16-4.26C14.53,29,12.91,29.76,11.67,30.27Zm-.92,7.6L6.39,36.28l4.36-1.62Z"/><polygon class="cls-1" points="5.79 9.86 15.93 9.86 10.87 19.11 5.79 9.86"/><polygon class="cls-1" points="9.95 19.11 5.06 9.89 0.06 19.11 9.95 19.11"/><polygon class="cls-1" points="0 0 4.99 9.16 10.02 0 0 0"/><polygon class="cls-1" points="5.79 9.16 15.93 9.16 10.87 0.03 5.79 9.16"/></svg>